<?xml version="1.0" encoding="utf-8"?>
<!-- Generator: Adobe Illustrator 17.1.0, SVG Export Plug-In . SVG Version: 6.00 Build 0)  -->
<!DOCTYPE svg PUBLIC "-//W3C//DTD SVG 1.1//EN" "http://www.w3.org/Graphics/SVG/1.1/DTD/svg11.dtd">
<svg version="1.1" id="Layer_1" xmlns="http://www.w3.org/2000/svg" xmlns:xlink="http://www.w3.org/1999/xlink" x="0px" y="0px"
	 viewBox="0 0 956.1 128.3" enable-background="new 0 0 956.1 128.3" xml:space="preserve">
<g>
	<path fill="#DB0C15" d="M260.5,96c-1.8,0-3.5,1.7-4.6,3.2l-0.7,1c-3.5,4.7-4.6,6.2-8.9,8.9c-1.7,1.1-5.2,1.9-6.2,0.6
		c-0.6-0.7-0.8-2-0.5-3.8c0.8-5.2,3-10.5,5.2-16.1c2.7-6.6,5.5-13.5,5.9-20.2c0.2-4.4-0.8-7.9-3-10.2c-3.6-3.8-10.6-4.1-17.6-0.8
		c-5.2,2.4-9.5,5.2-13.5,8.6c-0.2,0.2-0.6,0.5-1.1,0.9c-2.3,1.9-4.3,3.5-5.9,5c0.2-0.6,0.4-1.2,0.7-1.8c1.8-4.8,3.6-9.3-1.3-13.1
		c-2.5-1.9-6.9-2.9-10-2.9c-1.9,0-3.3,0.4-4.1,1c-2.2,1.9-4.1,6.7-5.8,11.2c-0.8,2.3-3.3,11.5-7.3,20.9c-0.5,1.3-1.9,4.8-2.7,6
		c-1.8,2.7-4.1,6.2-6.2,8.2c-4.4,4.2-12.9,9.9-18.6,9.3c-3.7-0.4,2.9-16.8,4.1-20.7c0.2-0.8,5.2-15.7,9.5-23.6
		c1.8-3.2,2.2-5.6,1.3-7.4c-1-2.1-3.7-3-7.3-3.7c-5.8-1.1-7.5,0.5-10.4,3.9c-0.2-0.1-0.4-0.3-0.5-0.4c-2.4-1.8-7.8-5.8-16.8-5
		c-15.6,1.4-32.5,14-40.2,30c-0.4,0.9-0.8,1.7-1.2,2.5h0l0,0c-1.4,3-2.3,5.4-2.9,7.5c-1.8,4.2-4,6.8-9.7,9.5
		c-6,2.8-18.4,8.8-34.2,5.6c-11-2.2-17.8-7.9-19.8-16.6c-3.9-17,2-30.1,7.8-41c0.6-1,1.6-3,2-3.1c0.3,0,1.3,0.6,2.2,1.2
		c0.9,0.6,2.1,1.3,3.6,2.1c13.2,7,28.5,8.8,40.8,4.7C96,53,103.6,40.7,101.6,26.8C99.9,15.1,88.6,5.7,75.3,5
		C61,4.2,44.2,9.7,30.4,19.7c-1.6,1.2-3.1,2.4-3.9,3.1c-2.6-2.4-5.8-8.4-3.9-14.1c0.4-1.1,0.2-2.5-0.4-3.5c-0.5-0.7-1.2-1.2-2-1.3
		c-2.4-0.3-4.5,2.1-5.4,3.1c-4.8,5.8-3,14.5-2.1,18c0.7,2.7,2.4,6.5,4.3,9.1c-0.1,0.1-0.3,0.3-0.5,0.5C10.2,41-9.1,73.7,5.1,102
		c10.1,20.2,28.4,24.6,42.5,24.6c7.1,0,17.1-1.8,20.4-2.9c7.1-2.3,11.5-3.8,22.9-10.7c2.6,7.3,9.5,12.1,17.9,12.1
		c0.9,0,1.8-0.1,2.7-0.2c7.8-1,15.6-4.6,24-11.1c1.9,6.9,6.6,10.9,13,10.9c4.1,0,8.8-1.6,13.7-4.6c0.9-0.5,1.7-1,2.5-1.5
		c2.3-1.4,4.5-2.7,7.5-5.1c-1.4,3.6-2.5,7.8,0.8,10.3c2.2,1.7,6,2.2,10.9,1.7c6.7-0.8,9.7-6.2,13.3-14.5c4.5-10.6,10.3-22.7,19.3-32
		c1.9-2,7.7-3.9,9.3-2.6c2.6,2.1-0.6,9.1-2.3,12.9c-0.4,1-0.8,1.8-1.1,2.4c-2.4,6.2-6.8,17.8-1.8,26.5c3,5.2,7.2,7.8,12.3,7.8h0
		c10.5,0,22.5-11.3,27.5-18.4c2-2.8,4.9-7.9,2.2-10.7C262,96.3,261.3,96,260.5,96z M136.7,84.6l-0.5,1.1c-2.5,6.3-5.8,12.3-9.7,18
		c-2.5,3.7-5.4,7.1-9.3,6.4c-3.6-0.6-4.5-4.5-4.8-6.8c-0.5-4.4,1-8.9,2.4-13.2l0.2-0.7c3.4-10.7,11.7-22.2,21.7-22.2l0.4,0
		c1.3,0.1,2.1,0.5,2.7,1.4C142,72.1,138.1,81.2,136.7,84.6z M46.9,35.6c-0.5-2.2,4-6.1,5.9-7.8l0.8-0.7C57,24,63.7,22,69.2,22
		c2.3,0,4.3,0.3,5.9,1.1c3.5,1.7,4.7,5.8,3.4,11.7c-0.6,2.9-3.2,9.5-13.9,9.7C58.4,44.7,48.2,40.9,46.9,35.6z"/>
	<g>
		<path fill="#63B231" d="M497.5,36.7c-1.6-11.3-8.4-21.2-19.3-27.9C466.3,1.5,452.4,0,442.8,0l-0.4,0c-6.8,0-13.5,0.8-19.8,2.2
			c-3.8,0.8-7.8,2.2-11.9,4c-12.2,5.4-27.2,17.3-29.2,32.7c-0.6,5,0.8,12.7,4.2,16.5c1.2,1.3,5.7,5.8,10.8,5.3
			c2.4-0.2,4.4-1.2,5.3-2.7c0.5-0.8,1-2.3,0.3-4.3c-1.6-4.4-2.4-8-1.3-12.3c1.7-6.5,7.1-10.8,12.9-15c7.5-5.4,17.1-8.3,27.7-8.3
			c2.9,0,5.9,0.2,8.8,0.7c13.8,2,20.7,15.1,19.5,26.5c-1.6,15.2-15.2,24.2-27.5,24.2l-0.4,0c-3.3-0.1-4-0.4-4.1-0.4
			c0-0.3,0.3-1.1,0.6-1.8c0.2-0.4,0.4-0.9,0.6-1.4c2.2-5.5,4.2-11,6.1-16.4c1.4-3.9,2.8-7.7,4.2-11.6c1.4-3.7,1.7-6,0.9-7.7
			c-0.7-1.6-2.3-2.4-3.7-2.9c-2.6-0.9-6.4-2.1-10.2-2.1c-3.2,0-5.8,0.8-7.8,2.4c-3.1,2.5-6.1,7-8.7,13.2l-1.2,2.8
			c-1.4,3.4-2.8,6.8-4.2,10.2c-6.6,16.1-13.4,33.4-18,51.1c-0.2,0.6-0.4,1.3-0.6,2c-1.3,4.6-2.9,10.3-0.9,14.5
			c2.2,4.6,9.3,5.1,12.2,5.1c2.2,0,4.3-0.3,5.8-0.7c6.8-2,11.9-18.5,16-34.4c1.9-7.6,2.2-7.8,3.3-7.8c0.4,0,0.8,0,1.4,0.1
			c0.6,0.1,1.4,0.1,2.3,0.2c29.3,1.2,44-10.6,53.4-20.8C495.9,56.2,498.8,46.5,497.5,36.7z"/>
		<path fill="#63B231" d="M738,94.5c-1.6,0-3,1.6-4,2.6l-0.3,0.3c-0.8,0.8-1.6,1.8-2.5,2.7c-4.3,4.7-9.1,10.1-15.6,11
			c-2.7,0.4-6.5-0.9-7.1-3.4c-1.2-5.2,3.3-16.4,6-23.1c0.5-1.2,0.9-2.2,1.2-3.1c0.9-2.4,2.9-6.9,3.7-8.6c2-0.2,7.8-0.7,11.3-1
			c3.2-0.3,5.9-3.7,6.7-6.9c0.7-2.8-0.2-5.2-2.2-6.5c-0.5-0.3-1.1-0.4-2.1-0.4c-1.3,0-3.1,0.2-4.8,0.5c-1.7,0.2-3.4,0.4-4.5,0.4
			c-0.1,0-0.2,0-0.2,0c0.4-1.2,1.2-3.1,2-5.2c5.4-13.4,6.4-17.2,5-18.6c-2.2-2.2-6.7-3.2-9.2-3.2c-0.3,0-0.6,0-0.8,0
			c-3.8,0.4-4.9,0.7-7.9,2.8c-2.5,1.7-5,7.5-7.7,14.4c-0.5,1.1-0.9,2.2-1.3,3.1c-0.6,1.5-2.1,5-2.7,6.3c-0.8,0.2-2.4,0.3-4.5,0.3
			c-1.5,0-2.9-0.1-4.1-0.2c-4.9-0.6-6.2,7.2-6.4,9.6c-0.1,1,0.2,1.9,0.8,2.6c1.5,1.8,4.8,2.1,7.3,2.4c0.1,0,0.2,0,0.3,0
			c-0.2,0.8-0.6,1.9-0.9,3.3c-2,7.9-5.8,14.8-10.5,19.6l-0.9,0.9c-2.4,2.4-9.6,9.9-13.2,9.9c-0.4,0-0.7-0.1-1-0.3
			c-0.9-0.8-1.9-3.7,1.5-14.9c0.5-1.7,1.1-3.4,1.6-5.1c1.7-5,3.4-10.1,3.8-15.6c0.4-5-0.6-9-3-11.5c-3.3-3.6-9.1-4.1-15.6-1.3
			c-5.2,2.3-9.8,5.9-14,9.4c-2.4,2.1-5.5,4.8-8.3,7.6c0.2-1,0.5-2,0.8-3c1.6-6,3-11.2,1-13.4c-1.6-1.8-4.7-2.1-9.8-2.2l-1.8,0
			c-2.9,0-6.1,0.3-8.1,2.6c-1.8,2.1-2.8,5.5-3.8,9.2c-0.5,1.7-0.9,3.5-1.5,5c-1.4,3.9-3.3,7.9-5.1,11.6c-3.2,6.6-7.7,12.3-14.8,18.3
			c-4,3.4-7.4,4.9-8.9,3.6c-1.9-1.7-1.5-7-0.9-8.8c1.6-4.9,3.1-8.8,4.4-12.2c1.7-4.4,3.1-8.2,4.5-13.2l0.4-1.4
			c1.5-4.9,3.7-12.4-3.1-14.7c-2.8-0.9-6.1-1.9-9.1-1.9c-4.7,0-6.6,2.5-7.4,4.5c-2.1,5.7-4.5,13.7-5.9,18.8
			c-2.1,7.6-7.5,18.3-13.6,24c-0.9,0.8-8.3,4.6-12.7,4.6c-0.7,0-1.7-0.1-2.2-0.6c-0.4-0.4-0.5-1.1-0.4-2c0.5-4.8,2.5-9.8,4.4-14.8
			c1-2.5,1.9-4.8,2.7-7.1c0.4-1.1,0.7-2.2,1.1-3.2c2-5.9,3.6-10.6,1.3-13.8c-1.6-2.2-4.9-3.3-10.4-3.3l-1.4,0
			c-8.9,0-12-1.5-13.1-2.7c-0.4-0.5-0.6-1.1-0.5-1.8c0.4-2.7-0.1-5.1-1.5-6.8c-1.7-2-4.5-2.9-8.4-2.5c-3.7,0.4-6.6,5.2-6.9,5.8
			c-3,5.2-0.1,10.7,2.2,15c0.8,1.5,0,3.7-0.8,5.6c-0.2,0.6-0.4,1.2-0.6,1.8c-1.6,5.1-5.4,10.2-8.9,14.6l-0.2,0.2
			c-0.3,0.3-0.8,0.8-1.3,1.4c-2.6,2.7-6.1,6.3-4.3,8.7c0.9,1.2,2.1,1.8,3.7,1.8c2.1,0,4.2-1.1,5.5-2c7-4.7,10.7-11.4,14.6-18.5
			l0.1-0.2c2.1-3.7,4-4.9,6.3-3.8c3.8,1.8,3.3,3.8,1.8,7.7l-0.3,0.8c-0.8,2.2-1.8,4.4-2.7,6.5c-2.2,4.8-4.4,9.8-5,15.4
			c-0.6,5.2,0.4,9.3,3,12.2c2.4,2.7,6.1,4.1,10.7,4.1c4.5,0,9.4-1.4,14-3.9c2.1-1.2,10.8-6.1,14.5-9.5c2.9,8.8,8.7,13.6,16.4,13.6
			c2.7,0,5.6-0.6,8.7-1.8c6.5-2.5,11.6-6.8,17.4-11.7c-1.8,4.3-3.4,9.4-0.4,12c2.1,1.9,6.3,2.4,12.2,1.7c7.9-1,11.2-8.5,13.8-14.5
			c5.8-13.4,12.2-23.5,20.3-31.6c3-3,5.2-4.2,6.5-3.3c0.6,0.5,1,2.4-0.1,6.4c-0.5,1.8-1.3,4-2.2,6.6c-3.7,10.3-8.7,24.5-3.6,31.8
			c2.3,3.3,6.4,4.8,12.4,4.4c4.7-0.3,9.6-2.1,15.2-5.4c1.3-0.8,9.7-6.9,13.5-10.1c1.5,5.7,4.7,10.7,8.7,13.4c3.1,2.1,7.7,2.7,9,2.9
			c0.9,0.1,1.9,0.2,2.8,0.2c4.7,0,9.8-1.3,14.9-3.8c3.9-1.9,7.6-4.7,11.6-8.9c2.7-2.8,4.6-5.3,5.9-7.9c1.3-2.6,3-6.3,1.9-9.1
			C739.7,94.8,738.6,94.5,738,94.5z"/>
		<path fill="#63B231" d="M584.2,45.2c0.3,0,0.6,0,0.8,0c8.1,0,15.7-5.9,15.8-12.2c0-7.2-5.5-8.3-9.5-9.1l-0.9-0.1
			c-5.5,0-10.9,2.1-14.2,5.5c-2.1,2.2-3.1,4.6-3,7.1C573.7,43.8,579.7,44.9,584.2,45.2z"/>
	</g>
	<path fill="#ED9101" d="M345.3,13.7c-4.4-1.5-9.7-1.7-12.5-1.7c-1.3,0-2.5,0-3.6,0.1c-2.4,0.2-5.5,1.4-6.9,6.3
		c-8.6,31-17.9,63.5-28.5,99.4c-0.5,1.8-1,4.1,0.1,5.8c0.8,1.2,2.2,1.9,4.3,2.2l2.1,0.3c2.4,0.4,5.1,0.8,7.7,0.9
		c0.4,0,0.9,0.1,1.4,0.1c1.2,0.1,2.6,0.2,3.8,0.2c1.2,0,2.1-0.1,2.8-0.3c4.8-1.2,6.7-6.8,7.3-9.2c5.1-20,11-40.2,16.6-59.7
		c2.9-10.1,5.8-20.2,8.7-30.3c0.6-2.2,1.3-4.9,1.8-7.5C351.1,17.5,349.2,15,345.3,13.7z"/>
	<g>
		<path fill="#66A9CB" d="M952.4,24.8c-4.6-7.4-12.4-12.1-21.6-12.9c-6.2-0.5-12.9,0.6-19.3,3c-6.1,2.3-11.7,6.6-15.9,12.1
			c-2.8,3.6-8.7,12.5-4.7,17.8c2,2.6,6.1,4.4,10.4,4.4c2,0,3.8-0.4,5.3-1c3.7-1.7,5.1-5.2,6.5-8.5c0.7-1.6,1.3-3.1,2.1-4.4
			c2.1-3.2,6.2-5.7,9.5-5.7c2.3,0,4,1.2,5,3.5c2.1,4.4-1.2,11.4-2.7,14.7c-3.2,6.7-8.1,12.6-12.9,18.3c-5.9,7-12,14.2-14.9,23.2
			c-1.5,4.7-1.5,7.8,0.1,10c1.5,2.1,4.5,3.1,9.3,3.1l0.3,0c8.7-0.1,11.7-6.5,14.6-12.8c1.1-2.4,2.2-4.8,3.7-6.9
			c3.2-4.4,7-8.4,10.7-12.3c6.3-6.6,12.8-13.4,16.3-22.3C957.3,40.2,956.7,31.7,952.4,24.8z"/>
		<path fill="#66A9CB" d="M902,105.5c-7.4,0.9-11.6,4.6-12.5,10.9c-0.3,2.4,0.5,4.8,2.4,7c2.6,3,6.8,5,10.9,5h0.1
			c7.3,0,13.8-5.3,13.8-11.3c0-2.4-1.1-4.9-3.1-6.9C910.8,107.2,906.5,105.5,902,105.5z M902.9,127.1L902.9,127.1L902.9,127.1
			L902.9,127.1z"/>
		<path fill="#66A9CB" d="M877.5,94.5c-1.6,0-3,1.6-4,2.6l-0.3,0.3c-0.8,0.8-1.6,1.8-2.5,2.7c-4.3,4.7-9.1,10.1-15.6,11
			c-2.7,0.4-6.5-0.9-7.1-3.4c-1.2-5.2,3.3-16.4,6-23.2c0.5-1.2,0.9-2.2,1.2-3.1c0.9-2.4,2.9-6.9,3.7-8.6c2-0.2,7.8-0.7,11.3-1
			c3.2-0.3,5.9-3.7,6.7-6.9c0.7-2.8-0.2-5.2-2.2-6.5c-0.5-0.3-1.1-0.4-2.1-0.4c-1.3,0-3.1,0.2-4.8,0.5c-1.8,0.2-3.7,0.5-4.7,0.4
			c0.4-1.2,1.2-3.1,2.1-5.2c5.4-13.4,6.4-17.2,5-18.6c-2.2-2.2-6.7-3.2-9.2-3.2c-0.3,0-0.6,0-0.8,0c-3.8,0.4-4.9,0.7-7.9,2.8
			c-2.4,1.7-4.9,7.4-7.6,14.2c-0.5,1.3-1,2.4-1.4,3.4c-0.6,1.5-2.2,4.9-2.8,6.2c-0.8,0.2-2.4,0.3-4.5,0.3c-1.5,0-2.9-0.1-4.1-0.2
			c-0.2,0-0.3,0-0.5,0c-4.6,0-5.7,7.3-5.9,9.6c-0.1,1,0.2,1.9,0.8,2.6c1.5,1.8,4.8,2.1,7.3,2.4c0.1,0,0.2,0,0.3,0
			c-0.2,0.8-0.6,1.9-0.9,3.3c-0.5,1.9-1.2,4.2-2,6.7c-2.3,7.6-5.2,17.1-5.1,24.4c0.1,10.2,4.1,12.8,8.1,15.5c3.1,2.1,7.7,2.7,9,2.9
			c0.9,0.1,1.9,0.2,2.8,0.2c4.7,0,9.8-1.3,14.9-3.8c3.9-1.9,7.6-4.7,11.6-8.9c2.7-2.8,4.6-5.3,5.9-7.9c1.3-2.6,3-6.3,1.9-9.1
			C879.3,94.8,878.1,94.5,877.5,94.5z"/>
		<path fill="#66A9CB" d="M823.8,14.4c-4-1.4-9-1.6-11.6-1.6c-1.3,0-2.5,0-3.6,0.1c-2.3,0.2-5.2,1.4-6.6,6.3
			c-8.2,30.7-17.1,63-27.2,98.9c-0.6,2-1,4.2,0.1,5.9c0.7,1.1,2.1,1.8,4,2.1l2,0.3c2.2,0.4,4.8,0.8,7.3,0.9c0.5,0,1.1,0,1.6,0
			c1.8,0,3.3-0.2,4.7-0.5c3.3-0.9,5.5-3.7,6.7-8.6c5.4-21.8,11.4-43.9,17.2-65.2c2.2-8.1,4.4-16.2,6.6-24.3c0.6-2.2,1.3-4.8,1.7-7.4
			C827.1,19.3,827.8,15.8,823.8,14.4z"/>
	</g>
</g>
</svg>
